<?xml version="1.0" encoding="utf-8"?>
<!-- Generator: Adobe Illustrator 22.0.1, SVG Export Plug-In . SVG Version: 6.00 Build 0)  -->
<svg version="1.1" id="レイヤー_1" xmlns="http://www.w3.org/2000/svg" xmlns:xlink="http://www.w3.org/1999/xlink" x="0px"
	 y="0px" viewBox="0 0 219.8 36.4" style="enable-background:new 0 0 219.8 36.4;" xml:space="preserve">
<style type="text/css">
	.st0{fill:#4C4C4C;}
	.st1{fill:#419FE3;}
</style>
<title>アセット 3</title>
<g>
	<path class="st0" d="M49.6,18.4l-2.9,2.9l2.9,2.9L48.7,25l-2.9-2.9L43,25l-0.9-0.9l2.9-2.9l-2.9-2.9l0.9-0.9l2.9,2.9l2.9-2.9
		L49.6,18.4z"/>
	<path class="st0" d="M61.9,25.6H56V11h5.9c3.6,0,5.6,3.2,5.6,7.1C67.5,22.1,65.6,25.6,61.9,25.6z M61.9,13.3h-3.4v10h3.4
		c2.5,0,3-3.5,3-5.4C64.9,14.6,63.3,13.3,61.9,13.3z"/>
	<path class="st0" d="M71.1,21c0.1,0.5,0.5,2.7,2.4,2.7c0.4,0,1.4-0.1,1.8-1.3h2.4c-0.3,0.9-1.1,3.4-4.3,3.4c-2.6,0-4.6-1.9-4.6-5.6
		c0-3.8,2.1-5.7,4.5-5.7c1.6,0,2.8,0.8,3.6,2c0.8,1.4,0.9,2.9,1,4.4h-6.8V21z M73.3,16.7c-1.8,0-2.1,1.9-2.2,2.5h4.1
		C75.2,17.6,74.5,16.7,73.3,16.7z"/>
	<path class="st0" d="M84,25.6h-2.4l-3-10.8h2.5l1.5,5.8l0.3,1.8l0.3-1.8l1.5-5.8h2.5L84,25.6z"/>
	<path class="st0" d="M90.1,21c0.1,0.5,0.5,2.7,2.4,2.7c0.4,0,1.4-0.1,1.8-1.3h2.4c-0.3,0.9-1.1,3.4-4.3,3.4c-2.6,0-4.6-1.9-4.6-5.6
		c0-3.8,2.1-5.7,4.5-5.7c1.6,0,2.8,0.8,3.6,2c0.8,1.4,0.9,2.9,1,4.4h-6.8V21z M92.3,16.7c-1.8,0-2.1,1.9-2.2,2.5h4.1
		C94.2,17.6,93.5,16.7,92.3,16.7z"/>
	<path class="st0" d="M98.4,25.6V11h2.4v14.6H98.4z"/>
	<path class="st0" d="M107.6,25.9c-3.7,0-5-2.9-5-5.6c0-3.6,2.3-5.7,5.1-5.7c3.2,0,5.1,2.6,5.1,5.7C112.7,23,111.2,25.9,107.6,25.9z
		 M107.6,16.7c-1.3,0-2.6,1.2-2.6,3.5c0,2,1,3.6,2.7,3.6c2.2,0,2.6-2.2,2.6-3.5C110.3,17.8,108.9,16.7,107.6,16.7z"/>
	<path class="st0" d="M119,25.9c-0.8,0-1.6-0.3-2.1-0.9c-0.3-0.3-0.4-0.5-0.6-1l0.1,2v2.4H114V14.8h2.4v0.7l-0.1,0.9
		c0.3-0.7,0.9-1.8,2.6-1.8c2.7,0,3.9,2.7,3.9,5.4C122.8,22.9,121.5,25.9,119,25.9z M118.5,16.8c-1.4,0-2.1,1.8-2.1,3.4
		c0,1.4,0.3,3.4,2,3.4c1.6,0,2-2.1,2-3.6C120.4,18.6,119.9,16.8,118.5,16.8z"/>
	<path class="st0" d="M135.6,25.6v-6.5c0-1.3-0.3-2.3-1.5-2.3c-1.3,0-1.8,1.4-1.8,2.3v6.5h-2.4v-6.5c0-0.8-0.2-2.2-1.5-2.2
		c-1.2,0-1.7,1.3-1.7,2.1v6.7h-2.4V14.8h2.4v0.6l-0.1,1c0.4-0.7,1-1.8,2.7-1.8c1.6,0,2.3,1,2.7,1.8c0.5-0.7,1.4-1.8,3.1-1.8
		c2.2,0,2.9,1.8,2.9,4.2v6.9h-2.4L135.6,25.6L135.6,25.6z"/>
	<path class="st0" d="M141.8,21c0.1,0.5,0.5,2.7,2.4,2.7c0.4,0,1.4-0.1,1.8-1.3h2.4c-0.3,0.9-1.1,3.4-4.3,3.4
		c-2.6,0-4.6-1.9-4.6-5.6c0-3.8,2.1-5.7,4.5-5.7c1.6,0,2.8,0.8,3.6,2c0.8,1.4,0.9,2.9,1,4.4h-6.8L141.8,21L141.8,21z M144,16.7
		c-1.8,0-2.1,1.9-2.2,2.5h4.1C145.9,17.6,145.2,16.7,144,16.7z"/>
	<path class="st0" d="M155.8,25.6v-6.8c0-1.2-0.5-2-1.6-2c-1,0-2.1,0.5-2.1,2.5v6.3h-2.4V14.8h2.4v0.9l-0.1,0.9
		c0.4-0.7,1.1-2.1,3-2.1c2.1,0,3.2,1.4,3.2,3.8v7.2h-2.4L155.8,25.6L155.8,25.6z"/>
	<path class="st0" d="M162.8,17v5.9c0,0.5,0.2,0.7,0.6,0.7h1v2h-1.5c-1.9,0-2.5-0.8-2.5-2.5V17h-1.3v-2.1h1.3v-3h2.4v3h1.7V17H162.8
		z"/>
	<path class="st0" d="M177.7,26.1c-4.4,0-6.3-3.6-6.3-7.6c0-3.9,1.8-7.9,6.5-7.9c3.7,0,5.4,2.8,5.6,5.1h-2.6c-0.5-2.7-2.6-2.7-3-2.7
		c-2.1,0-3.9,1.8-3.9,5.5c0,3.4,1.7,5.3,3.7,5.3c0.9,0,1.7-0.4,2.4-1.1c0.6-0.6,0.7-1.1,0.8-2h2.6C183.2,23.1,181.6,26.1,177.7,26.1
		z"/>
	<path class="st0" d="M191.6,25.6c-0.3-0.4-0.3-1.1-0.3-1.6c-0.3,0.6-0.9,1.8-3.1,1.8c-2.7,0-3.4-1.8-3.4-3.2c0-2.5,2-3.2,4.2-3.6
		c1-0.2,2.2-0.4,2.2-1.4c0-0.9-0.8-1.1-1.6-1.1c-0.2,0-1.2,0-1.9,0.7c-0.3,0.3-0.3,0.5-0.4,1.1h-2.1c0.2-3.3,2.9-3.8,4.2-3.8
		c2.2,0,4.2,1.1,4.2,3.9v5.9c0,0.4,0.1,0.9,0.5,1.2h-2.5L191.6,25.6L191.6,25.6z M189.4,20.8c-0.9,0.2-2.2,0.5-2.2,1.8
		c0,0.8,0.7,1.4,1.5,1.4c1,0,2.4-0.7,2.4-2.2v-1.2l0.1-0.7C190.8,20.4,190.4,20.6,189.4,20.8z"/>
	<path class="st0" d="M206.6,25.6v-6.5c0-1.3-0.3-2.3-1.5-2.3c-1.3,0-1.8,1.4-1.8,2.3v6.5h-2.4v-6.5c0-0.8-0.2-2.2-1.5-2.2
		c-1.2,0-1.7,1.3-1.7,2.1v6.7h-2.4V14.8h2.4v0.6l-0.1,1c0.4-0.7,1-1.8,2.7-1.8c1.6,0,2.3,1,2.7,1.8c0.5-0.7,1.4-1.8,3.1-1.8
		c2.2,0,2.9,1.8,2.9,4.2v6.9h-2.4V25.6z"/>
	<path class="st0" d="M215.7,25.9c-0.8,0-1.6-0.3-2.1-0.9c-0.3-0.3-0.4-0.5-0.6-1l0.1,2v2.4h-2.4V14.8h2.4v0.7l-0.1,0.9
		c0.3-0.7,0.9-1.8,2.6-1.8c2.7,0,3.9,2.7,3.9,5.4C219.5,22.9,218.2,25.9,215.7,25.9z M215.2,16.8c-1.4,0-2.1,1.8-2.1,3.4
		c0,1.4,0.3,3.4,2,3.4c1.6,0,2-2.1,2-3.6C217.1,18.6,216.6,16.8,215.2,16.8z"/>
</g>
<g>
	<path class="st1" d="M8.8,12.1c3.2,0,4.8,1.3,4.8,3.7c0,2.6-1.8,4.2-5,4.2c-0.4,0-0.9,0-1.4-0.1v4.7H5.9V12.4
		C7,12.2,7.9,12.1,8.8,12.1z M10.7,18.6c0.9-0.4,1.5-1.3,1.5-2.6c0-1.9-1.2-2.7-3.4-2.7c-0.5,0-1.1,0-1.6,0.1V19c0.4,0,0.9,0,1.3,0
		C9.3,18.9,10.2,18.9,10.7,18.6z"/>
	<path class="st1" d="M16.6,16.1l2.1,3.3l0,0l2.1-3.3H22c0,0.3-0.2,0.5-0.3,0.7l-2.3,3.3L22,24c0.1,0.3,0.3,0.5,0.3,0.7H21L18.5,21
		l0,0l-2.4,3.7H15c0-0.3,0.2-0.5,0.3-0.7l2.6-3.8l-2.3-3.3c-0.2-0.3-0.3-0.5-0.3-0.7L16.6,16.1L16.6,16.1z"/>
	<path class="st1" d="M27.1,12.1c2.5,0,3.6,1.7,3.6,3.6c0,2.3-1.7,4.3-4,6.6l-1.3,1.3H31v1.1h-7l-0.1-1.2l1.6-1.6
		c2.4-2.4,3.9-4.2,3.9-6.2c0-1.4-0.8-2.5-2.4-2.5c-0.9,0-1.7,0.3-2.5,0.9l-0.6-0.8C24.8,12.5,25.9,12.1,27.1,12.1z"/>
</g>
<path class="st1" d="M0.2,0.4v35.8H36V0.4H0.2z M1.2,35.1V1.4h33.7v33.7C34.9,35.1,1.2,35.1,1.2,35.1z"/>
</svg>
